<mxfile host="Electron" agent="Mozilla/5.0 (Windows NT 10.0; Win64; x64) AppleWebKit/537.36 (KHTML, like Gecko) draw.io/26.2.15 Chrome/134.0.6998.205 Electron/35.2.1 Safari/537.36" version="26.2.15">
  <diagram name="Page-1" id="uTM_t4Ej9pJb_nBEWPW1">
    <mxGraphModel dx="1378" dy="887" grid="1" gridSize="10" guides="1" tooltips="1" connect="1" arrows="1" fold="1" page="1" pageScale="1" pageWidth="1100" pageHeight="1700" math="0" shadow="0">
      <root>
        <mxCell id="0" />
        <mxCell id="1" parent="0" />
        <mxCell id="aJE1OrVwy0cm8b1BQcLN-3" value="Integration Model" style="text;strokeColor=none;fillColor=none;html=1;fontSize=24;fontStyle=1;verticalAlign=middle;align=center;" parent="1" vertex="1">
          <mxGeometry x="115" y="20" width="100" height="40" as="geometry" />
        </mxCell>
        <mxCell id="Do9x-jcjrmXgV14PZyJw-1" value="crm_cust_info" style="swimlane;fontStyle=0;childLayout=stackLayout;horizontal=1;startSize=30;horizontalStack=0;resizeParent=1;resizeParentMax=0;resizeLast=0;collapsible=1;marginBottom=0;whiteSpace=wrap;html=1;fillColor=#dae8fc;strokeColor=#6c8ebf;rounded=1;fontSize=20;" parent="1" vertex="1">
          <mxGeometry x="407.5" y="360" width="170" height="90" as="geometry" />
        </mxCell>
        <mxCell id="Do9x-jcjrmXgV14PZyJw-2" value="cst_id" style="text;strokeColor=none;fillColor=none;align=left;verticalAlign=middle;spacingLeft=4;spacingRight=4;overflow=hidden;points=[[0,0.5],[1,0.5]];portConstraint=eastwest;rotatable=0;whiteSpace=wrap;html=1;fontSize=20;" parent="Do9x-jcjrmXgV14PZyJw-1" vertex="1">
          <mxGeometry y="30" width="170" height="30" as="geometry" />
        </mxCell>
        <mxCell id="Do9x-jcjrmXgV14PZyJw-19" value="cst_key" style="text;strokeColor=none;fillColor=none;align=left;verticalAlign=middle;spacingLeft=4;spacingRight=4;overflow=hidden;points=[[0,0.5],[1,0.5]];portConstraint=eastwest;rotatable=0;whiteSpace=wrap;html=1;fontSize=20;" parent="Do9x-jcjrmXgV14PZyJw-1" vertex="1">
          <mxGeometry y="60" width="170" height="30" as="geometry" />
        </mxCell>
        <mxCell id="Do9x-jcjrmXgV14PZyJw-5" value="crm_prd_info" style="swimlane;fontStyle=0;childLayout=stackLayout;horizontal=1;startSize=30;horizontalStack=0;resizeParent=1;resizeParentMax=0;resizeLast=0;collapsible=1;marginBottom=0;whiteSpace=wrap;html=1;fillColor=#dae8fc;strokeColor=#6c8ebf;rounded=1;fontSize=20;" parent="1" vertex="1">
          <mxGeometry x="407.5" y="190" width="170" height="60" as="geometry" />
        </mxCell>
        <mxCell id="Do9x-jcjrmXgV14PZyJw-6" value="prd_key" style="text;strokeColor=none;fillColor=none;align=left;verticalAlign=middle;spacingLeft=4;spacingRight=4;overflow=hidden;points=[[0,0.5],[1,0.5]];portConstraint=eastwest;rotatable=0;whiteSpace=wrap;html=1;fontSize=20;" parent="Do9x-jcjrmXgV14PZyJw-5" vertex="1">
          <mxGeometry y="30" width="170" height="30" as="geometry" />
        </mxCell>
        <mxCell id="Do9x-jcjrmXgV14PZyJw-9" value="Transactional Records about Sales &amp;amp; Orders" style="text;html=1;align=center;verticalAlign=middle;whiteSpace=wrap;rounded=0;fontSize=18;" parent="1" vertex="1">
          <mxGeometry x="100" y="160" width="200" height="30" as="geometry" />
        </mxCell>
        <mxCell id="Do9x-jcjrmXgV14PZyJw-11" value="Customer Information" style="text;html=1;align=center;verticalAlign=middle;whiteSpace=wrap;rounded=0;fontSize=18;" parent="1" vertex="1">
          <mxGeometry x="392.5" y="330" width="200" height="30" as="geometry" />
        </mxCell>
        <mxCell id="Do9x-jcjrmXgV14PZyJw-13" value="Customer &amp;amp; History Product&lt;div&gt;&amp;nbsp;Information&lt;/div&gt;" style="text;html=1;align=center;verticalAlign=middle;whiteSpace=wrap;rounded=0;fontSize=18;" parent="1" vertex="1">
          <mxGeometry x="357.5" y="154" width="235" height="30" as="geometry" />
        </mxCell>
        <mxCell id="Do9x-jcjrmXgV14PZyJw-14" value="crm_sales_details" style="swimlane;fontStyle=0;childLayout=stackLayout;horizontal=1;startSize=30;horizontalStack=0;resizeParent=1;resizeParentMax=0;resizeLast=0;collapsible=1;marginBottom=0;whiteSpace=wrap;html=1;fillColor=#dae8fc;strokeColor=#6c8ebf;rounded=1;fontSize=20;" parent="1" vertex="1">
          <mxGeometry x="110" y="200" width="170" height="90" as="geometry" />
        </mxCell>
        <mxCell id="Do9x-jcjrmXgV14PZyJw-15" value="prd_key" style="text;strokeColor=none;fillColor=none;align=left;verticalAlign=middle;spacingLeft=4;spacingRight=4;overflow=hidden;points=[[0,0.5],[1,0.5]];portConstraint=eastwest;rotatable=0;whiteSpace=wrap;html=1;fontSize=20;" parent="Do9x-jcjrmXgV14PZyJw-14" vertex="1">
          <mxGeometry y="30" width="170" height="30" as="geometry" />
        </mxCell>
        <mxCell id="Do9x-jcjrmXgV14PZyJw-16" value="cst_id" style="text;strokeColor=none;fillColor=none;align=left;verticalAlign=middle;spacingLeft=4;spacingRight=4;overflow=hidden;points=[[0,0.5],[1,0.5]];portConstraint=eastwest;rotatable=0;whiteSpace=wrap;html=1;fontSize=20;" parent="Do9x-jcjrmXgV14PZyJw-14" vertex="1">
          <mxGeometry y="60" width="170" height="30" as="geometry" />
        </mxCell>
        <mxCell id="Do9x-jcjrmXgV14PZyJw-17" style="edgeStyle=orthogonalEdgeStyle;rounded=0;orthogonalLoop=1;jettySize=auto;html=1;entryX=0;entryY=0.5;entryDx=0;entryDy=0;" parent="1" source="Do9x-jcjrmXgV14PZyJw-15" target="Do9x-jcjrmXgV14PZyJw-6" edge="1">
          <mxGeometry relative="1" as="geometry" />
        </mxCell>
        <mxCell id="Do9x-jcjrmXgV14PZyJw-18" style="edgeStyle=orthogonalEdgeStyle;rounded=0;orthogonalLoop=1;jettySize=auto;html=1;entryX=0.021;entryY=0.8;entryDx=0;entryDy=0;entryPerimeter=0;" parent="1" source="Do9x-jcjrmXgV14PZyJw-16" target="Do9x-jcjrmXgV14PZyJw-2" edge="1">
          <mxGeometry relative="1" as="geometry" />
        </mxCell>
        <mxCell id="Do9x-jcjrmXgV14PZyJw-20" value="erp_cust_az12" style="swimlane;fontStyle=0;childLayout=stackLayout;horizontal=1;startSize=30;horizontalStack=0;resizeParent=1;resizeParentMax=0;resizeLast=0;collapsible=1;marginBottom=0;whiteSpace=wrap;html=1;fillColor=#fff2cc;strokeColor=#d6b656;rounded=1;fontSize=20;" parent="1" vertex="1">
          <mxGeometry x="792.5" y="350" width="170" height="60" as="geometry" />
        </mxCell>
        <mxCell id="Do9x-jcjrmXgV14PZyJw-21" value="cid" style="text;strokeColor=none;fillColor=none;align=left;verticalAlign=middle;spacingLeft=4;spacingRight=4;overflow=hidden;points=[[0,0.5],[1,0.5]];portConstraint=eastwest;rotatable=0;whiteSpace=wrap;html=1;fontSize=20;" parent="Do9x-jcjrmXgV14PZyJw-20" vertex="1">
          <mxGeometry y="30" width="170" height="30" as="geometry" />
        </mxCell>
        <mxCell id="Do9x-jcjrmXgV14PZyJw-22" value="Extra Customer Information (birthdate)" style="text;html=1;align=center;verticalAlign=middle;whiteSpace=wrap;rounded=0;fontSize=18;" parent="1" vertex="1">
          <mxGeometry x="760" y="310" width="235" height="30" as="geometry" />
        </mxCell>
        <mxCell id="Do9x-jcjrmXgV14PZyJw-23" style="edgeStyle=orthogonalEdgeStyle;rounded=0;orthogonalLoop=1;jettySize=auto;html=1;entryX=1;entryY=0.5;entryDx=0;entryDy=0;strokeWidth=2;" parent="1" source="Do9x-jcjrmXgV14PZyJw-21" target="Do9x-jcjrmXgV14PZyJw-2" edge="1">
          <mxGeometry relative="1" as="geometry" />
        </mxCell>
        <mxCell id="LBh8jvkeauesJFn8JiQG-4" style="edgeStyle=orthogonalEdgeStyle;rounded=0;orthogonalLoop=1;jettySize=auto;html=1;entryX=1;entryY=0.5;entryDx=0;entryDy=0;strokeWidth=2;" parent="1" source="LBh8jvkeauesJFn8JiQG-1" target="Do9x-jcjrmXgV14PZyJw-2" edge="1">
          <mxGeometry relative="1" as="geometry">
            <Array as="points">
              <mxPoint x="690" y="560" />
              <mxPoint x="690" y="405" />
            </Array>
          </mxGeometry>
        </mxCell>
        <mxCell id="LBh8jvkeauesJFn8JiQG-1" value="erp_loc_a101" style="swimlane;fontStyle=0;childLayout=stackLayout;horizontal=1;startSize=30;horizontalStack=0;resizeParent=1;resizeParentMax=0;resizeLast=0;collapsible=1;marginBottom=0;whiteSpace=wrap;html=1;fillColor=#fff2cc;strokeColor=#d6b656;rounded=1;fontSize=20;" parent="1" vertex="1">
          <mxGeometry x="790" y="520" width="170" height="60" as="geometry" />
        </mxCell>
        <mxCell id="LBh8jvkeauesJFn8JiQG-2" value="cid" style="text;strokeColor=none;fillColor=none;align=left;verticalAlign=middle;spacingLeft=4;spacingRight=4;overflow=hidden;points=[[0,0.5],[1,0.5]];portConstraint=eastwest;rotatable=0;whiteSpace=wrap;html=1;fontSize=20;" parent="LBh8jvkeauesJFn8JiQG-1" vertex="1">
          <mxGeometry y="30" width="170" height="30" as="geometry" />
        </mxCell>
        <mxCell id="LBh8jvkeauesJFn8JiQG-3" value="Location of Customers" style="text;html=1;align=center;verticalAlign=middle;whiteSpace=wrap;rounded=0;fontSize=18;" parent="1" vertex="1">
          <mxGeometry x="760" y="480" width="235" height="30" as="geometry" />
        </mxCell>
        <mxCell id="LBh8jvkeauesJFn8JiQG-5" value="erp_px_cat_g1v2" style="swimlane;fontStyle=0;childLayout=stackLayout;horizontal=1;startSize=30;horizontalStack=0;resizeParent=1;resizeParentMax=0;resizeLast=0;collapsible=1;marginBottom=0;whiteSpace=wrap;html=1;fillColor=#fff2cc;strokeColor=#d6b656;rounded=1;fontSize=20;" parent="1" vertex="1">
          <mxGeometry x="810" y="190" width="160" height="60" as="geometry" />
        </mxCell>
        <mxCell id="LBh8jvkeauesJFn8JiQG-6" value="id" style="text;strokeColor=none;fillColor=none;align=left;verticalAlign=middle;spacingLeft=4;spacingRight=4;overflow=hidden;points=[[0,0.5],[1,0.5]];portConstraint=eastwest;rotatable=0;whiteSpace=wrap;html=1;fontSize=20;" parent="LBh8jvkeauesJFn8JiQG-5" vertex="1">
          <mxGeometry y="30" width="160" height="30" as="geometry" />
        </mxCell>
        <mxCell id="LBh8jvkeauesJFn8JiQG-7" value="Product Categories" style="text;html=1;align=center;verticalAlign=middle;whiteSpace=wrap;rounded=0;fontSize=18;" parent="1" vertex="1">
          <mxGeometry x="760" y="154" width="235" height="30" as="geometry" />
        </mxCell>
        <mxCell id="LBh8jvkeauesJFn8JiQG-9" value="" style="rounded=1;whiteSpace=wrap;html=1;fillColor=none;dashed=1;strokeWidth=2;" parent="1" vertex="1">
          <mxGeometry x="60" y="110" width="610" height="440" as="geometry" />
        </mxCell>
        <mxCell id="LBh8jvkeauesJFn8JiQG-8" style="edgeStyle=orthogonalEdgeStyle;rounded=0;orthogonalLoop=1;jettySize=auto;html=1;entryX=1.006;entryY=0.167;entryDx=0;entryDy=0;entryPerimeter=0;strokeWidth=2;" parent="1" source="LBh8jvkeauesJFn8JiQG-5" target="Do9x-jcjrmXgV14PZyJw-6" edge="1">
          <mxGeometry relative="1" as="geometry" />
        </mxCell>
        <mxCell id="LBh8jvkeauesJFn8JiQG-10" value="CRM" style="text;html=1;align=center;verticalAlign=middle;whiteSpace=wrap;rounded=0;fillColor=#dae8fc;strokeColor=#6c8ebf;fontStyle=1;fontSize=27;" parent="1" vertex="1">
          <mxGeometry x="280" y="80" width="130" height="30" as="geometry" />
        </mxCell>
        <mxCell id="LBh8jvkeauesJFn8JiQG-11" value="" style="rounded=1;whiteSpace=wrap;html=1;fillColor=none;dashed=1;strokeWidth=2;" parent="1" vertex="1">
          <mxGeometry x="720" y="90" width="310" height="550" as="geometry" />
        </mxCell>
        <mxCell id="LBh8jvkeauesJFn8JiQG-12" value="ERP" style="text;html=1;align=center;verticalAlign=middle;whiteSpace=wrap;rounded=0;fillColor=#fff2cc;strokeColor=#d6b656;fontStyle=1;fontSize=22;" parent="1" vertex="1">
          <mxGeometry x="845" y="60" width="60" height="30" as="geometry" />
        </mxCell>
        <mxCell id="jpNxC1_0pmjN7TaH9Ysw-1" value="&lt;font style=&quot;font-size: 16px;&quot;&gt;&lt;b&gt;PRODUCT&lt;/b&gt;&lt;/font&gt;" style="text;html=1;align=center;verticalAlign=middle;whiteSpace=wrap;rounded=0;fillColor=#f8cecc;strokeColor=#b85450;" vertex="1" parent="1">
          <mxGeometry x="410" y="250" width="160" height="30" as="geometry" />
        </mxCell>
        <mxCell id="jpNxC1_0pmjN7TaH9Ysw-2" value="&lt;font style=&quot;font-size: 16px;&quot;&gt;&lt;b&gt;PRODUCT&lt;/b&gt;&lt;/font&gt;" style="text;html=1;align=center;verticalAlign=middle;whiteSpace=wrap;rounded=0;fillColor=#f8cecc;strokeColor=#b85450;" vertex="1" parent="1">
          <mxGeometry x="810" y="250" width="160" height="30" as="geometry" />
        </mxCell>
        <mxCell id="jpNxC1_0pmjN7TaH9Ysw-3" value="&lt;font style=&quot;font-size: 16px;&quot;&gt;&lt;b&gt;CUSTOMER&lt;/b&gt;&lt;/font&gt;" style="text;html=1;align=center;verticalAlign=middle;whiteSpace=wrap;rounded=0;fillColor=#d5e8d4;strokeColor=#82b366;" vertex="1" parent="1">
          <mxGeometry x="407.5" y="450" width="160" height="30" as="geometry" />
        </mxCell>
        <mxCell id="jpNxC1_0pmjN7TaH9Ysw-4" value="&lt;font style=&quot;font-size: 16px;&quot;&gt;&lt;b&gt;CUSTOMER&lt;/b&gt;&lt;/font&gt;" style="text;html=1;align=center;verticalAlign=middle;whiteSpace=wrap;rounded=0;fillColor=#d5e8d4;strokeColor=#82b366;" vertex="1" parent="1">
          <mxGeometry x="800" y="410" width="160" height="30" as="geometry" />
        </mxCell>
        <mxCell id="jpNxC1_0pmjN7TaH9Ysw-5" value="&lt;font style=&quot;font-size: 16px;&quot;&gt;&lt;b&gt;CUSTOMER&lt;/b&gt;&lt;/font&gt;" style="text;html=1;align=center;verticalAlign=middle;whiteSpace=wrap;rounded=0;fillColor=#d5e8d4;strokeColor=#82b366;" vertex="1" parent="1">
          <mxGeometry x="800" y="580" width="160" height="30" as="geometry" />
        </mxCell>
        <mxCell id="jpNxC1_0pmjN7TaH9Ysw-6" value="&lt;font style=&quot;font-size: 16px;&quot;&gt;&lt;b&gt;SALES&lt;/b&gt;&lt;/font&gt;" style="text;html=1;align=center;verticalAlign=middle;whiteSpace=wrap;rounded=0;fillColor=#e1d5e7;strokeColor=#9673a6;" vertex="1" parent="1">
          <mxGeometry x="115" y="290" width="160" height="30" as="geometry" />
        </mxCell>
      </root>
    </mxGraphModel>
  </diagram>
</mxfile>
